<svg xmlns="http://www.w3.org/2000/svg" viewBox="0 0 512 512" width="512" height="512">
  <defs>
    <linearGradient id="g3" x1="0%" y1="0%" x2="0%" y2="100%">
      <stop offset="0%" style="stop-color:#AED6F1" />
      <stop offset="100%" style="stop-color:#2E86C1" />
    </linearGradient>
  </defs>
  <circle cx="256" cy="256" r="246" fill="url(#g3)"/>
  <!-- Compass ring -->
  <circle cx="256" cy="240" r="120" fill="none" stroke="white" stroke-width="3" opacity="0.3"/>
  <circle cx="256" cy="240" r="115" fill="none" stroke="white" stroke-width="1" opacity="0.15"/>
  <!-- Compass ticks -->
  <g stroke="white" stroke-width="2" opacity="0.4">
    <line x1="256" y1="118" x2="256" y2="130"/>
    <line x1="256" y1="350" x2="256" y2="362"/>
    <line x1="134" y1="240" x2="146" y2="240"/>
    <line x1="366" y1="240" x2="378" y2="240"/>
  </g>
  <!-- N S E W -->
  <text x="256" y="115" text-anchor="middle" font-family="Helvetica Neue" font-size="14" fill="white" font-weight="700" opacity="0.5">N</text>
  <text x="256" y="378" text-anchor="middle" font-family="Helvetica Neue" font-size="14" fill="white" font-weight="700" opacity="0.5">S</text>
  <!-- Plane in center -->
  <g transform="translate(256,240) scale(1.3)">
    <path d="M0,-35 L4,-28 L4,20 L18,30 L18,34 L4,28 L4,38 L10,42 L10,46 L0,43 L-10,46 L-10,42 L-4,38 L-4,28 L-18,34 L-18,30 L-4,20 L-4,-28Z" fill="white"/>
  </g>
  <text x="256" y="410" text-anchor="middle" font-family="Helvetica Neue,Arial" font-weight="700" font-size="32" fill="white" letter-spacing="4">AVIATION</text>
  <text x="256" y="442" text-anchor="middle" font-family="Helvetica Neue,Arial" font-weight="300" font-size="20" fill="white" letter-spacing="8" opacity="0.7">LEARNING</text>
</svg>
